<svg width="84" height="72" viewBox="0 0 84 72" fill="none" xmlns="http://www.w3.org/2000/svg">
<path fill-rule="evenodd" clip-rule="evenodd" d="M9.08549 16.4055C13.6517 16.4055 17.3534 20.2789 17.3534 25.0571V47.3736C17.3534 52.1517 13.6517 56.0252 9.08549 56.0252C4.51928 56.0252 0.817627 52.1517 0.817627 47.3736V25.0571C0.817627 20.2789 4.51928 16.4055 9.08549 16.4055Z" fill="#007AFF"/>
<path fill-rule="evenodd" clip-rule="evenodd" d="M42.1573 0.522217C46.7235 0.522217 50.4251 4.39565 50.4251 9.17376V63.3236C50.4251 68.1017 46.7235 71.9751 42.1573 71.9751C37.5911 71.9751 33.8894 68.1017 33.8894 63.3236V9.17376C33.8894 4.39565 37.5911 0.522217 42.1573 0.522217Z" fill="#007AFF"/>
<path fill-rule="evenodd" clip-rule="evenodd" d="M75.2708 16.4055C79.837 16.4055 83.5387 20.2789 83.5387 25.0571V47.3736C83.5387 52.1517 79.837 56.0252 75.2708 56.0252C70.7046 56.0252 67.0029 52.1517 67.0029 47.3736V25.0571C67.0029 20.2789 70.7046 16.4055 75.2708 16.4055Z" fill="#007AFF"/>
</svg>
