<svg width="580" height="126" viewBox="0 0 580 126" fill="none" xmlns="http://www.w3.org/2000/svg">
<g clip-path="url(#clip0_2275_47)">
<path d="M200.771 34.4497C202.975 34.4497 204.798 35.2261 206.24 36.779C207.682 38.3318 208.402 40.2618 208.402 42.5689V76.6204C208.402 86.0262 205.901 93.4799 200.898 98.9814C195.895 104.483 188.687 107.234 179.274 107.234C169.861 107.234 162.675 104.483 157.714 98.9814C152.753 93.4799 150.273 86.0262 150.273 76.6204V42.5689C150.273 40.2618 150.994 38.3318 152.435 36.779C153.877 35.2261 155.7 34.4497 157.905 34.4497C160.11 34.4497 161.933 35.2261 163.374 36.779C164.816 38.3318 165.537 40.2618 165.537 42.5689V76.6204C165.537 82.0332 166.681 86.0484 168.971 88.6661C171.261 91.2837 174.695 92.5925 179.274 92.5925C183.853 92.5925 187.415 91.2837 189.704 88.6661C191.994 86.0484 193.139 82.0332 193.139 76.6204V42.5689C193.139 40.2618 193.859 38.3318 195.301 36.779C196.743 35.2261 198.566 34.4497 200.771 34.4497Z" fill="white"/>
<path d="M222.182 94.8553C221.334 93.613 220.953 92.0158 221.037 90.0637C221.122 88.1115 222.225 86.4256 224.345 85.0059C225.701 84.1185 227.143 83.7414 228.669 83.8745C230.196 84.0076 231.68 84.8284 233.121 86.3369C235.58 88.9102 238.167 90.9067 240.88 92.3264C243.594 93.7461 246.986 94.456 251.056 94.456C252.328 94.3673 253.727 94.1676 255.254 93.8571C256.78 93.5465 258.116 92.8366 259.26 91.7274C260.405 90.6183 260.978 88.9101 260.978 86.6031C260.978 84.6509 260.342 83.0981 259.07 81.9445C257.798 80.791 256.123 79.8149 254.045 79.0163C251.968 78.2177 249.657 77.4635 247.113 76.7536C244.484 75.955 241.792 75.0677 239.036 74.0916C236.28 73.1155 233.757 71.8511 231.468 70.2982C229.178 68.7454 227.313 66.6823 225.871 64.1091C224.429 61.5358 223.709 58.297 223.709 54.3927C223.709 49.956 224.896 46.1848 227.27 43.0791C229.645 39.9735 232.718 37.5776 236.492 35.8917C240.266 34.2058 244.23 33.3628 248.385 33.3628C251.014 33.3628 253.77 33.6955 256.653 34.361C259.536 35.0266 262.292 36.0914 264.921 37.5555C267.549 39.0196 269.754 40.9495 271.535 43.3453C272.468 44.6764 273.019 46.2736 273.189 48.137C273.358 50.0004 272.553 51.6863 270.772 53.1948C269.5 54.2596 268.016 54.7255 266.32 54.5924C264.624 54.4593 263.225 53.8603 262.122 52.7955C260.681 50.8434 258.752 49.2905 256.335 48.137C253.918 46.9834 251.141 46.4067 248.003 46.4067C246.731 46.4067 245.353 46.5619 243.869 46.8725C242.385 47.1831 241.092 47.8486 239.99 48.869C238.888 49.8895 238.336 51.5089 238.336 53.7272C238.336 55.7681 238.972 57.3875 240.244 58.5854C241.516 59.7833 243.233 60.7594 245.396 61.5136C247.558 62.2678 249.869 62.9999 252.328 63.7097C254.872 64.4196 257.458 65.2626 260.087 66.2387C262.716 67.2147 265.133 68.5014 267.337 70.0986C269.542 71.6958 271.323 73.7589 272.68 76.2878C274.037 78.8167 274.715 82.0333 274.715 85.9376C274.715 90.463 273.443 94.3229 270.899 97.5173C268.355 100.712 265.175 103.13 261.359 104.771C257.543 106.413 253.643 107.234 249.657 107.234C244.654 107.234 239.651 106.324 234.648 104.505C229.644 102.686 225.489 99.4695 222.182 94.8553Z" fill="white"/>
<path d="M287.011 34.4499H317.157C319.192 34.4499 320.888 35.1598 322.245 36.5795C323.602 37.9993 324.28 39.7739 324.28 41.9035C324.28 44.0332 323.602 45.6525 322.245 47.0279C320.888 48.4033 319.192 49.091 317.157 49.091H287.011C284.976 49.091 283.28 48.3811 281.923 46.9614C280.567 45.5416 279.888 43.767 279.888 41.6373C279.888 39.5077 280.567 37.8883 281.923 36.513C283.28 35.1376 284.976 34.4499 287.011 34.4499ZM300.621 18.5C302.826 18.5 304.628 19.2764 306.027 20.8293C307.427 22.3821 308.126 24.3121 308.126 26.6191V88.3113C308.126 89.5536 308.359 90.574 308.826 91.3726C309.292 92.1712 309.928 92.748 310.734 93.103C311.539 93.4579 312.408 93.6353 313.341 93.6353C314.359 93.6353 315.292 93.4357 316.14 93.0364C316.988 92.6371 317.963 92.4374 319.065 92.4374C320.252 92.4374 321.333 93.0142 322.309 94.1678C323.284 95.3213 323.771 96.9185 323.771 98.9594C323.771 101.444 322.478 103.485 319.892 105.082C317.306 106.679 314.528 107.478 311.56 107.478C309.78 107.478 307.808 107.323 305.646 107.012C303.483 106.701 301.448 105.947 299.54 104.749C297.632 103.551 296.042 101.71 294.77 99.2256C293.498 96.741 292.862 93.3248 292.862 88.9768V26.6413C292.862 24.3342 293.604 22.4043 295.088 20.8514C296.572 19.2986 298.417 18.5222 300.621 18.5222V18.5Z" fill="white"/>
<path d="M447.111 34.4498C449.315 34.4498 451.139 35.204 452.58 36.7125C454.022 38.221 454.743 40.1731 454.743 42.5689V99.0258C454.743 101.333 454.022 103.263 452.58 104.816C451.139 106.369 449.315 107.145 447.111 107.145C444.906 107.145 443.083 106.369 441.641 104.816C440.2 103.263 439.479 101.333 439.479 99.0258V91.2616L442.277 92.4595C442.277 93.613 441.684 95.0106 440.496 96.6522C439.309 98.2937 437.698 99.9131 435.663 101.51C433.628 103.108 431.232 104.461 428.476 105.57C425.72 106.679 422.731 107.234 419.509 107.234C413.658 107.234 408.358 105.659 403.609 102.509C398.86 99.3586 395.108 95.0106 392.352 89.4647C389.596 83.9189 388.218 77.5522 388.218 70.3648C388.218 63.1773 389.596 56.6776 392.352 51.1317C395.108 45.5859 398.818 41.2379 403.482 38.0879C408.146 34.9378 413.318 33.3628 419 33.3628C422.646 33.3628 425.996 33.9396 429.049 35.0931C432.101 36.2466 434.751 37.7107 436.998 39.4854C439.246 41.2601 440.984 43.057 442.214 44.876C443.443 46.695 444.058 48.2257 444.058 49.468L439.479 51.1983V42.5689C439.479 40.2618 440.2 38.3319 441.641 36.779C443.083 35.2262 444.906 34.4498 447.111 34.4498ZM421.417 92.5926C425.148 92.5926 428.413 91.6165 431.211 89.6644C434.009 87.7122 436.193 85.0502 437.762 81.6783C439.33 78.3065 440.115 74.5353 440.115 70.3648C440.115 66.1943 439.33 62.29 437.762 58.9181C436.193 55.5462 434.009 52.8842 431.211 50.9321C428.413 48.9799 425.148 48.0039 421.417 48.0039C417.686 48.0039 414.548 48.9799 411.75 50.9321C408.951 52.8842 406.768 55.5462 405.199 58.9181C403.63 62.29 402.846 66.1056 402.846 70.3648C402.846 74.624 403.63 78.3065 405.199 81.6783C406.768 85.0502 408.951 87.7122 411.75 89.6644C414.548 91.6165 417.77 92.5926 421.417 92.5926Z" fill="white"/>
<path d="M486.584 99.026C486.584 101.333 485.842 103.263 484.358 104.816C482.874 106.369 481.03 107.145 478.825 107.145C476.62 107.145 474.925 106.369 473.483 104.816C472.041 103.263 471.321 101.333 471.321 99.026V26.6414C471.321 24.3343 472.063 22.4043 473.547 20.8515C475.031 19.2986 476.875 18.5222 479.08 18.5222C481.284 18.5222 483.086 19.2986 484.486 20.8515C485.885 22.4043 486.584 24.3343 486.584 26.6414V99.026Z" fill="white"/>
<path d="M510.794 107.145C508.589 107.145 506.766 106.369 505.325 104.816C503.883 103.263 503.162 101.333 503.162 99.026V26.6414C503.162 24.3343 503.883 22.4043 505.325 20.8515C506.766 19.2986 508.589 18.5222 510.794 18.5222C512.999 18.5222 514.822 19.2986 516.264 20.8515C517.705 22.4043 518.426 24.3343 518.426 26.6414V99.026C518.426 101.333 517.705 103.263 516.264 104.816C514.822 106.369 512.999 107.145 510.794 107.145ZM551.476 34.4499C553.427 34.4499 555.123 35.2929 556.564 36.9788C558.006 38.6648 558.727 40.3064 558.727 41.9036C558.727 44.0332 557.709 46.0297 555.674 47.8931L517.154 85.006L516.518 66.6381L545.88 36.9788C547.491 35.2929 549.356 34.4499 551.476 34.4499ZM554.423 107.101C552.218 107.101 550.353 106.213 548.826 104.439L524.023 77.02L535.598 65.8395L559.765 93.2583C561.377 95.0329 562.182 97.0294 562.182 99.2478C562.182 101.466 561.313 103.44 559.575 104.905C557.836 106.369 556.119 107.101 554.423 107.101Z" fill="white"/>
<path d="M125.449 27.1516V74.7129C125.449 87.8677 115.273 98.5158 102.701 98.5158H92.2712" stroke="white" stroke-width="13.8978" stroke-linecap="round" stroke-linejoin="round"/>
<path d="M358.178 31.2554V98.5156V31.2554Z" fill="white"/>
<path d="M358.178 31.2554V98.5156" stroke="white" stroke-width="13.8978" stroke-linecap="round" stroke-linejoin="round"/>
<path d="M379.717 27.8613H336.618H379.717Z" fill="white"/>
<path d="M379.717 27.8613H336.618" stroke="white" stroke-width="13.8978" stroke-linecap="round" stroke-linejoin="round"/>
<path fill-rule="evenodd" clip-rule="evenodd" d="M26.0855 34.4387C30.6517 34.4387 34.3534 38.3121 34.3534 43.0903V65.4068C34.3534 70.1849 30.6517 74.0584 26.0855 74.0584C21.5193 74.0584 17.8176 70.1849 17.8176 65.4068V43.0903C17.8176 38.3121 21.5193 34.4387 26.0855 34.4387Z" fill="white"/>
<path fill-rule="evenodd" clip-rule="evenodd" d="M59.6211 18.5222C64.1873 18.5222 67.889 22.3956 67.889 27.1738V81.3236C67.889 86.1017 64.1873 89.9751 59.6211 89.9751C55.0549 89.9751 51.3533 86.1017 51.3533 81.3236V27.1738C51.3533 22.3956 55.0549 18.5222 59.6211 18.5222Z" fill="white"/>
<path fill-rule="evenodd" clip-rule="evenodd" d="M93.157 34.4387C97.7232 34.4387 101.425 38.3121 101.425 43.0903V65.4068C101.425 70.1849 97.7232 74.0584 93.157 74.0584C88.5908 74.0584 84.8892 70.1849 84.8892 65.4068V43.0903C84.8892 38.3121 88.5908 34.4387 93.157 34.4387Z" fill="white"/>
</g>
<defs>
<clipPath id="clip0_2275_47">
<rect width="544.365" height="89" fill="white" transform="translate(17.8176 18.5)"/>
</clipPath>
</defs>
</svg>
