<svg width="278" height="62" viewBox="0 0 278 62" fill="none" xmlns="http://www.w3.org/2000/svg">
<g clip-path="url(#clip0_367_2791)">
<path d="M96.91 18.13C97.95 18.13 98.81 18.48 99.49 19.18C100.17 19.88 100.51 20.75 100.51 21.79V37.14C100.51 41.38 99.33 44.74 96.97 47.22C94.61 49.7 91.21 50.94 86.77 50.94C82.33 50.94 78.94 49.7 76.6 47.22C74.26 44.74 73.09 41.38 73.09 37.14V21.79C73.09 20.75 73.43 19.88 74.11 19.18C74.79 18.48 75.65 18.13 76.69 18.13C77.73 18.13 78.59 18.48 79.27 19.18C79.95 19.88 80.29 20.75 80.29 21.79V37.14C80.29 39.58 80.83 41.39 81.91 42.57C82.99 43.75 84.61 44.34 86.77 44.34C88.93 44.34 90.61 43.75 91.69 42.57C92.77 41.39 93.31 39.58 93.31 37.14V21.79C93.31 20.75 93.65 19.88 94.33 19.18C95.01 18.48 95.87 18.13 96.91 18.13Z" fill="#3D3D3D"/>
<path d="M107.01 45.36C106.61 44.8 106.43 44.08 106.47 43.2C106.51 42.32 107.03 41.56 108.03 40.92C108.67 40.52 109.35 40.35 110.07 40.41C110.79 40.47 111.49 40.84 112.17 41.52C113.33 42.68 114.55 43.58 115.83 44.22C117.11 44.86 118.71 45.18 120.63 45.18C121.23 45.14 121.89 45.05 122.61 44.91C123.33 44.77 123.96 44.45 124.5 43.95C125.04 43.45 125.31 42.68 125.31 41.64C125.31 40.76 125.01 40.06 124.41 39.54C123.81 39.02 123.02 38.58 122.04 38.22C121.06 37.86 119.97 37.52 118.77 37.2C117.53 36.84 116.26 36.44 114.96 36C113.66 35.56 112.47 34.99 111.39 34.29C110.31 33.59 109.43 32.66 108.75 31.5C108.07 30.34 107.73 28.88 107.73 27.12C107.73 25.12 108.29 23.42 109.41 22.02C110.53 20.62 111.98 19.54 113.76 18.78C115.54 18.02 117.41 17.64 119.37 17.64C120.61 17.64 121.91 17.79 123.27 18.09C124.63 18.39 125.93 18.87 127.17 19.53C128.41 20.19 129.45 21.06 130.29 22.14C130.73 22.74 130.99 23.46 131.07 24.3C131.15 25.14 130.77 25.9 129.93 26.58C129.33 27.06 128.63 27.27 127.83 27.21C127.03 27.15 126.37 26.88 125.85 26.4C125.17 25.52 124.26 24.82 123.12 24.3C121.98 23.78 120.67 23.52 119.19 23.52C118.59 23.52 117.94 23.59 117.24 23.73C116.54 23.87 115.93 24.17 115.41 24.63C114.89 25.09 114.63 25.82 114.63 26.82C114.63 27.74 114.93 28.47 115.53 29.01C116.13 29.55 116.94 29.99 117.96 30.33C118.98 30.67 120.07 31 121.23 31.32C122.43 31.64 123.65 32.02 124.89 32.46C126.13 32.9 127.27 33.48 128.31 34.2C129.35 34.92 130.19 35.85 130.83 36.99C131.47 38.13 131.79 39.58 131.79 41.34C131.79 43.38 131.19 45.12 129.99 46.56C128.79 48 127.29 49.09 125.49 49.83C123.69 50.57 121.85 50.94 119.97 50.94C117.61 50.94 115.25 50.53 112.89 49.71C110.53 48.89 108.57 47.44 107.01 45.36Z" fill="#3D3D3D"/>
<path d="M137.59 18.13H151.81C152.77 18.13 153.57 18.45 154.21 19.09C154.85 19.73 155.17 20.53 155.17 21.49C155.17 22.45 154.85 23.18 154.21 23.8C153.57 24.42 152.77 24.73 151.81 24.73H137.59C136.63 24.73 135.83 24.41 135.19 23.77C134.55 23.13 134.23 22.33 134.23 21.37C134.23 20.41 134.55 19.68 135.19 19.06C135.83 18.44 136.63 18.13 137.59 18.13ZM144.01 10.94C145.05 10.94 145.9 11.29 146.56 11.99C147.22 12.69 147.55 13.56 147.55 14.6V42.41C147.55 42.97 147.66 43.43 147.88 43.79C148.1 44.15 148.4 44.41 148.78 44.57C149.16 44.73 149.57 44.81 150.01 44.81C150.49 44.81 150.93 44.72 151.33 44.54C151.73 44.36 152.19 44.27 152.71 44.27C153.27 44.27 153.78 44.53 154.24 45.05C154.7 45.57 154.93 46.29 154.93 47.21C154.93 48.33 154.32 49.25 153.1 49.97C151.88 50.69 150.57 51.05 149.17 51.05C148.33 51.05 147.4 50.98 146.38 50.84C145.36 50.7 144.4 50.36 143.5 49.82C142.6 49.28 141.85 48.45 141.25 47.33C140.65 46.21 140.35 44.67 140.35 42.71V14.61C140.35 13.57 140.7 12.7 141.4 12C142.1 11.3 142.97 10.95 144.01 10.95V10.94Z" fill="#3D3D3D"/>
<path d="M213.11 18.13C214.15 18.13 215.01 18.47 215.69 19.15C216.37 19.83 216.71 20.71 216.71 21.79V47.24C216.71 48.28 216.37 49.15 215.69 49.85C215.01 50.55 214.15 50.9 213.11 50.9C212.07 50.9 211.21 50.55 210.53 49.85C209.85 49.15 209.51 48.28 209.51 47.24V43.74L210.83 44.28C210.83 44.8 210.55 45.43 209.99 46.17C209.43 46.91 208.67 47.64 207.71 48.36C206.75 49.08 205.62 49.69 204.32 50.19C203.02 50.69 201.61 50.94 200.09 50.94C197.33 50.94 194.83 50.23 192.59 48.81C190.35 47.39 188.58 45.43 187.28 42.93C185.98 40.43 185.33 37.56 185.33 34.32C185.33 31.08 185.98 28.15 187.28 25.65C188.58 23.15 190.33 21.19 192.53 19.77C194.73 18.35 197.17 17.64 199.85 17.64C201.57 17.64 203.15 17.9 204.59 18.42C206.03 18.94 207.28 19.6 208.34 20.4C209.4 21.2 210.22 22.01 210.8 22.83C211.38 23.65 211.67 24.34 211.67 24.9L209.51 25.68V21.79C209.51 20.75 209.85 19.88 210.53 19.18C211.21 18.48 212.07 18.13 213.11 18.13ZM200.99 44.34C202.75 44.34 204.29 43.9 205.61 43.02C206.93 42.14 207.96 40.94 208.7 39.42C209.44 37.9 209.81 36.2 209.81 34.32C209.81 32.44 209.44 30.68 208.7 29.16C207.96 27.64 206.93 26.44 205.61 25.56C204.29 24.68 202.75 24.24 200.99 24.24C199.23 24.24 197.75 24.68 196.43 25.56C195.11 26.44 194.08 27.64 193.34 29.16C192.6 30.68 192.23 32.4 192.23 34.32C192.23 36.24 192.6 37.9 193.34 39.42C194.08 40.94 195.11 42.14 196.43 43.02C197.75 43.9 199.27 44.34 200.99 44.34Z" fill="#3D3D3D"/>
<path d="M231.73 47.24C231.73 48.28 231.38 49.15 230.68 49.85C229.98 50.55 229.11 50.9 228.07 50.9C227.03 50.9 226.23 50.55 225.55 49.85C224.87 49.15 224.53 48.28 224.53 47.24V14.61C224.53 13.57 224.88 12.7 225.58 12C226.28 11.3 227.15 10.95 228.19 10.95C229.23 10.95 230.08 11.3 230.74 12C231.4 12.7 231.73 13.57 231.73 14.61V47.24Z" fill="#3D3D3D"/>
<path d="M243.15 50.9C242.11 50.9 241.25 50.55 240.57 49.85C239.89 49.15 239.55 48.28 239.55 47.24V14.61C239.55 13.57 239.89 12.7 240.57 12C241.25 11.3 242.11 10.95 243.15 10.95C244.19 10.95 245.05 11.3 245.73 12C246.41 12.7 246.75 13.57 246.75 14.61V47.24C246.75 48.28 246.41 49.15 245.73 49.85C245.05 50.55 244.19 50.9 243.15 50.9ZM262.34 18.13C263.26 18.13 264.06 18.51 264.74 19.27C265.42 20.03 265.76 20.77 265.76 21.49C265.76 22.45 265.28 23.35 264.32 24.19L246.15 40.92L245.85 32.64L259.7 19.27C260.46 18.51 261.34 18.13 262.34 18.13ZM263.73 50.88C262.69 50.88 261.81 50.48 261.09 49.68L249.39 37.32L254.85 32.28L266.25 44.64C267.01 45.44 267.39 46.34 267.39 47.34C267.39 48.34 266.98 49.23 266.16 49.89C265.34 50.55 264.53 50.88 263.73 50.88Z" fill="#3D3D3D"/>
<path d="M14.51 22.01V32.07" stroke="#007AFF" stroke-width="7.8" stroke-miterlimit="10" stroke-linecap="round"/>
<path d="M30.11 14.85V39.26" stroke="#007AFF" stroke-width="7.8" stroke-miterlimit="10" stroke-linecap="round"/>
<path d="M61.38 14.84V36.28C61.38 42.21 56.58 47.01 50.65 47.01H45.73" stroke="#3D3D3D" stroke-width="7.8" stroke-linecap="round" stroke-linejoin="round"/>
<path d="M171.16 16.69V47.01" stroke="#3D3D3D" stroke-width="7.8" stroke-linecap="round" stroke-linejoin="round"/>
<path d="M181.32 15.16H160.99" stroke="#3D3D3D" stroke-width="7.8" stroke-linecap="round" stroke-linejoin="round"/>
<path d="M45.73 22.01V32.07" stroke="#007AFF" stroke-width="7.8" stroke-miterlimit="10" stroke-linecap="round"/>
</g>
<defs>
<clipPath id="clip0_367_2791">
<rect width="256.78" height="40.12" fill="white" transform="translate(10.61 10.94)"/>
</clipPath>
</defs>
</svg>
